<svg width="217" height="207" viewBox="0 0 217 207" fill="none" xmlns="http://www.w3.org/2000/svg">
<path d="M18.5893 46.0771L1.64208 96.7067C1.0397 98.5063 1.50803 100.492 2.85113 101.833L61.9178 160.794C62.9831 161.857 64.7969 161.407 65.2415 159.969L78.2252 117.979C78.8347 116.008 78.1709 113.865 76.5538 112.584L46.5664 88.8199C45.8468 88.2497 44.9841 87.8886 44.0728 87.7762L14.2928 84.1043C13.4825 84.0044 12.6601 84.1045 11.8974 84.3957L6.40251 86.4937L11.6889 82.2619C12.5757 81.552 13.6777 81.1652 14.8136 81.1652H86.1366C88.2869 81.1652 90.1964 79.7904 90.8784 77.751L113.494 10.1255C113.761 9.32676 114.226 8.60847 114.845 8.03724L120.061 3.22217L117.009 8.1054C116.678 8.63575 116.448 9.22358 116.334 9.83838L110.85 39.2326C110.677 40.161 110.77 41.1196 111.119 41.9972L125.441 78.0128C126.198 79.9161 128.039 81.1652 130.087 81.1652H173.928C175.413 81.1652 176.38 79.6045 175.719 78.275L138.261 2.91676C137.416 1.21709 135.691 0.142353 133.793 0.142353H79.7865C78.3608 0.142353 66.4898 23.0437 59.6939 36.5454C58.9254 38.0721 57.4352 39.1021 55.7352 39.2784L22.8151 42.6908C20.8643 42.893 19.2118 44.2172 18.5893 46.0771Z" fill="#F41031"/>
<path d="M177.504 77.4613L163.731 40.1607L194.311 43.9594C196.19 44.1929 197.777 45.4685 198.408 47.2543L215.739 96.2641C216.393 98.1148 215.904 100.177 214.488 101.537L187.069 127.874C185.813 129.08 185.276 130.853 185.65 132.553L193.13 166.57C193.553 168.494 192.807 170.487 191.225 171.66L147.095 204.384C145.518 205.553 143.402 205.691 141.686 204.737L109.763 186.982C108.237 186.133 106.378 186.142 104.86 187.006L73.768 204.696C72.0494 205.674 69.9159 205.547 68.3253 204.373L24.0681 171.693C22.457 170.504 21.7112 168.467 22.1728 166.519L28.2176 140.996C28.5533 139.579 30.243 138.984 31.3923 139.879L63.8359 165.134L104.41 135.679C106.141 134.422 108.48 134.406 110.229 135.64L150.565 164.089L136.326 117.666C135.714 115.672 136.404 113.508 138.057 112.236L175.862 83.1563C177.596 81.8219 178.262 79.5144 177.504 77.4613Z" fill="#F41031"/>
</svg>
